<?xml version="1.0" encoding="UTF-8" standalone="no"?>
<!-- Created with Inkscape (http://www.inkscape.org/) -->

<svg
   width="32.69405mm"
   height="18.6182mm"
   viewBox="0 0 32.694051 18.6182"
   version="1.1"
   id="svg1"
   xmlns="http://www.w3.org/2000/svg"
   xmlns:svg="http://www.w3.org/2000/svg">
  <defs
     id="defs1" />
  <g
     id="layer1"
     transform="translate(-42.050353,-102.05959)">
    <path
       style="font-size:25.4px;font-family:Milker;-inkscape-font-specification:Milker;stroke-width:0.264583"
       d="m 52.870753,109.47639 c -2.667,-0.6096 -4.2418,-0.7874 -4.2418,-1.6764 0,-0.5588 0.8636,-0.762 1.7272,-0.762 1.2446,0 2.7432,0.3302 3.2766,1.2192 l 5.689599,-1.1684 c -0.5588,-2.1082 -3.835399,-5.0292 -8.686799,-5.0292 -5.5118,0 -8.1026,2.159 -8.1026,5.1308 0,4.1148 4.953,5.5372 7.6454,6.0706 2.5146,0.4826 3.4544,0.6604 3.4544,1.4732 0,0.5842 -0.6858,0.9652 -1.7018,0.9652 -0.9652,0 -2.4638,-0.2286 -3.7592,-1.524 l -6.1214,1.4478 c 1.27,2.2352 3.8862,5.0546 9.0424,5.0546 6.578599,0 8.661399,-3.2004 8.661399,-5.5626 0,-2.9464 -1.8034,-4.445 -6.883399,-5.6388 z m 16.97145,-0.2794 v -4.8768 h -4.318 v 4.8768 h -4.8768 v 4.3434 h 4.8768 v 4.8768 h 4.318 v -4.8768 h 4.9022 v -4.3434 z"
       id="text1"
       aria-label="SCORE+" />
  </g>
</svg>
